<svg preserveAspectRatio="none" overflow="visible" style="display: block;" width="26" height="27" viewBox="0 0 26 27" fill="none" xmlns="http://www.w3.org/2000/svg">
<g id="logo_hms_new 1">
<g id="Vector">
</g>
<path id="Vector_2" d="M4.22176 5.25452C4.22176 5.25452 2.86025 5.49904 2.86025 6.64872V15.0139C2.86025 19.4874 9.42636 24.4657 11.6583 25.9444C12.1031 26.2419 12.6786 26.2419 13.1233 25.9444C15.3553 24.4657 21.9214 19.4874 21.9214 15.0139V6.64872C21.9214 5.49904 20.5599 5.25452 20.5599 5.25452L13.181 2.92956C12.6664 2.76742 12.1153 2.76742 11.6007 2.92956L4.22176 5.25452Z" fill="#F0F0F0"/>
<path id="Vector_3" d="M5.87155 4.26117C5.89424 4.25695 5.91666 4.25137 5.93868 4.24443L13.3177 1.91946C13.7211 1.79235 14.1532 1.79235 14.5566 1.91946L21.9356 4.24443C21.9576 4.25137 21.98 4.25695 22.0027 4.26117C22.0036 4.26134 22.0045 4.2615 22.0054 4.26167L22.005 4.2616L22.0043 4.26147L22.0032 4.26127L22.0061 4.26185C22.0107 4.26281 22.0197 4.26474 22.0323 4.26777C22.0577 4.27386 22.0971 4.2842 22.1457 4.29978C22.245 4.33158 22.3718 4.38178 22.4935 4.45502C22.7363 4.60115 22.8931 4.78998 22.8931 5.08276V13.448C22.8931 14.4251 22.5328 15.4715 21.9118 16.5397C21.2928 17.6046 20.4357 18.655 19.4949 19.6291C17.6127 21.5781 15.4493 23.1663 14.3551 23.8913L14.3531 23.8927C14.1003 24.0617 13.7739 24.0617 13.5212 23.8927L13.5191 23.8913C12.4249 23.1663 10.2615 21.5781 8.37928 19.6291C7.43854 18.655 6.58145 17.6046 5.96246 16.5397C5.34146 15.4715 4.98112 14.4251 4.98112 13.448V5.08276C4.98112 4.78998 5.13792 4.60115 5.38073 4.45502C5.50244 4.38178 5.62923 4.33158 5.72853 4.29978C5.77715 4.2842 5.81656 4.27386 5.84195 4.26777C5.85458 4.26474 5.86353 4.26281 5.86818 4.26185L5.87155 4.26117ZM5.86918 4.2616L5.86912 4.26161C5.86916 4.2616 5.86919 4.2616 5.86922 4.26159L5.86918 4.2616Z" stroke="#6F7882" stroke-linecap="round" stroke-linejoin="round"/>
</g>
</svg>
